<svg width="26" height="23" viewBox="0 0 26 23" fill="none" xmlns="http://www.w3.org/2000/svg">
<g clip-path="url(#clip0_90_6681)">
<path d="M4.0625 16.5312H0.8125C0.597012 16.5312 0.390349 16.607 0.237976 16.7418C0.0856024 16.8766 0 17.0594 0 17.25L0 20.125C0 20.3156 0.0856024 20.4984 0.237976 20.6332C0.390349 20.768 0.597012 20.8438 0.8125 20.8438H4.0625C4.27799 20.8438 4.48465 20.768 4.63702 20.6332C4.7894 20.4984 4.875 20.3156 4.875 20.125V17.25C4.875 17.0594 4.7894 16.8766 4.63702 16.7418C4.48465 16.607 4.27799 16.5312 4.0625 16.5312ZM4.0625 2.15625H0.8125C0.597012 2.15625 0.390349 2.23198 0.237976 2.36677C0.0856024 2.50156 0 2.68438 0 2.875L0 5.75C0 5.94062 0.0856024 6.12344 0.237976 6.25823C0.390349 6.39302 0.597012 6.46875 0.8125 6.46875H4.0625C4.27799 6.46875 4.48465 6.39302 4.63702 6.25823C4.7894 6.12344 4.875 5.94062 4.875 5.75V2.875C4.875 2.68438 4.7894 2.50156 4.63702 2.36677C4.48465 2.23198 4.27799 2.15625 4.0625 2.15625ZM4.0625 9.34375H0.8125C0.597012 9.34375 0.390349 9.41948 0.237976 9.55427C0.0856024 9.68906 0 9.87188 0 10.0625L0 12.9375C0 13.1281 0.0856024 13.3109 0.237976 13.4457C0.390349 13.5805 0.597012 13.6562 0.8125 13.6562H4.0625C4.27799 13.6562 4.48465 13.5805 4.63702 13.4457C4.7894 13.3109 4.875 13.1281 4.875 12.9375V10.0625C4.875 9.87188 4.7894 9.68906 4.63702 9.55427C4.48465 9.41948 4.27799 9.34375 4.0625 9.34375ZM25.1875 17.25H8.9375C8.72201 17.25 8.51535 17.3257 8.36298 17.4605C8.2106 17.5953 8.125 17.7781 8.125 17.9688V19.4062C8.125 19.5969 8.2106 19.7797 8.36298 19.9145C8.51535 20.0493 8.72201 20.125 8.9375 20.125H25.1875C25.403 20.125 25.6097 20.0493 25.762 19.9145C25.9144 19.7797 26 19.5969 26 19.4062V17.9688C26 17.7781 25.9144 17.5953 25.762 17.4605C25.6097 17.3257 25.403 17.25 25.1875 17.25ZM25.1875 2.875H8.9375C8.72201 2.875 8.51535 2.95073 8.36298 3.08552C8.2106 3.22031 8.125 3.40313 8.125 3.59375V5.03125C8.125 5.22187 8.2106 5.40469 8.36298 5.53948C8.51535 5.67427 8.72201 5.75 8.9375 5.75H25.1875C25.403 5.75 25.6097 5.67427 25.762 5.53948C25.9144 5.40469 26 5.22187 26 5.03125V3.59375C26 3.40313 25.9144 3.22031 25.762 3.08552C25.6097 2.95073 25.403 2.875 25.1875 2.875ZM25.1875 10.0625H8.9375C8.72201 10.0625 8.51535 10.1382 8.36298 10.273C8.2106 10.4078 8.125 10.5906 8.125 10.7812V12.2188C8.125 12.4094 8.2106 12.5922 8.36298 12.727C8.51535 12.8618 8.72201 12.9375 8.9375 12.9375H25.1875C25.403 12.9375 25.6097 12.8618 25.762 12.727C25.9144 12.5922 26 12.4094 26 12.2188V10.7812C26 10.5906 25.9144 10.4078 25.762 10.273C25.6097 10.1382 25.403 10.0625 25.1875 10.0625Z" fill="url(#paint0_linear_90_6681)"/>
</g>
<defs>
<linearGradient id="paint0_linear_90_6681" x1="13" y1="2.15625" x2="13" y2="20.8438" gradientUnits="userSpaceOnUse">
<stop stop-color="#0360DC"/>
<stop offset="1" stop-color="#65C98D"/>
</linearGradient>
<clipPath id="clip0_90_6681">
<rect width="26" height="23" fill="white"/>
</clipPath>
</defs>
</svg>
