<svg width="51" height="51" viewBox="0 0 51 51" fill="none" xmlns="http://www.w3.org/2000/svg">
<path d="M21.37 0C9.5648 0 0 9.5648 0 21.37C0 33.1752 9.5648 42.74 21.37 42.74C33.1752 42.74 42.74 33.1752 42.74 21.37C42.74 9.5648 33.1752 0 21.37 0ZM21.37 38.6039C11.8655 38.6039 4.13613 30.8745 4.13613 21.37C4.13613 11.8655 11.8655 4.13613 21.37 4.13613C30.8745 4.13613 38.6039 11.8655 38.6039 21.37C38.6039 30.8745 30.8745 38.6039 21.37 38.6039ZM14.4765 19.9913C16.0016 19.9913 17.2339 18.7591 17.2339 17.2339C17.2339 15.7087 16.0016 14.4765 14.4765 14.4765C12.9513 14.4765 11.719 15.7087 11.719 17.2339C11.719 18.7591 12.9513 19.9913 14.4765 19.9913ZM28.2635 14.4765C26.7384 14.4765 25.5061 15.7087 25.5061 17.2339C25.5061 18.7591 26.7384 19.9913 28.2635 19.9913C29.7887 19.9913 31.021 18.7591 31.021 17.2339C31.021 15.7087 29.7887 14.4765 28.2635 14.4765ZM21.37 25.5061C17.906 25.5061 14.6488 27.0313 12.4256 29.694C11.6932 30.5729 11.8138 31.874 12.6927 32.6065C13.5717 33.3303 14.8728 33.2183 15.6053 32.3394C17.0357 30.6246 19.1382 29.6336 21.37 29.6336C23.6018 29.6336 25.7043 30.616 27.1347 32.3394C27.8327 33.1752 29.1252 33.3648 30.0473 32.6065C30.9262 31.874 31.0382 30.5729 30.3144 29.694C28.0912 27.0313 24.834 25.5061 21.37 25.5061Z" fill="black"/>
<path d="M34.9887 35.0278L48 48M40.5 21.75C40.5 32.1052 32.1052 40.5 21.75 40.5C11.3947 40.5 3 32.1052 3 21.75C3 11.3947 11.3947 3 21.75 3C32.1052 3 40.5 11.3947 40.5 21.75Z" stroke="black" stroke-width="5" stroke-linecap="round" stroke-linejoin="round"/>
</svg>
