<svg width="20" height="20" viewBox="0 0 20 20" fill="none" xmlns="http://www.w3.org/2000/svg">
<path d="M17 5.5C17 6.33062 16.3257 7 15.5 7C14.6694 7 14 6.32573 14 5.5C14 4.66938 14.6743 4 15.5 4C16.3257 4 17 4.67427 17 5.5Z" fill="#808080"/>
<path d="M10.0059 18.1989C12.6793 18.1989 12.9959 18.1871 14.0473 18.1403C15.0244 18.0973 15.5521 17.9332 15.9038 17.7964C16.369 17.6167 16.7051 17.3979 17.053 17.0502C17.4047 16.6986 17.6197 16.3665 17.7995 15.9015C17.9363 15.5499 18.1004 15.0186 18.1434 14.0457C18.1903 12.9908 18.2021 12.6743 18.2021 10.0059C18.2021 7.33346 18.1903 7.01699 18.1434 5.96601C18.1004 4.98925 17.9363 4.46181 17.7995 4.11018C17.6197 3.64524 17.4008 3.30924 17.053 2.96152C16.7012 2.60988 16.369 2.395 15.9038 2.21527C15.5521 2.07853 15.0205 1.91444 14.0473 1.87146C12.992 1.82458 12.6754 1.81285 10.0059 1.81285C7.33242 1.81285 7.01583 1.82458 5.96443 1.87146C4.9873 1.91444 4.45964 2.07853 4.10788 2.21527C3.64276 2.395 3.30662 2.61379 2.95876 2.96152C2.607 3.31315 2.39203 3.64524 2.21223 4.11018C2.07543 4.46181 1.91128 4.99316 1.86828 5.96601C1.82138 7.0209 1.80965 7.33737 1.80965 10.0059C1.80965 12.6783 1.82138 12.9947 1.86828 14.0457C1.91128 15.0225 2.07543 15.5499 2.21223 15.9015C2.39203 16.3665 2.6109 16.7025 2.95876 17.0502C3.31053 17.4018 3.64276 17.6167 4.10788 17.7964C4.45964 17.9332 4.99121 18.0973 5.96443 18.1403C7.01583 18.1871 7.33242 18.1989 10.0059 18.1989ZM10.0059 20C7.28943 20 6.94938 19.9883 5.88235 19.9414C4.81923 19.8945 4.08833 19.7226 3.45515 19.4765C2.79461 19.2186 2.23569 18.8787 1.68067 18.32C1.12175 17.7652 0.781708 17.2065 0.523744 16.5501C0.277506 15.9133 0.105531 15.1866 0.0586281 14.1239C0.0117256 13.0533 0 12.7134 0 9.99805C0 7.28267 0.0117256 6.94276 0.0586281 5.87615C0.105531 4.81344 0.277506 4.08283 0.523744 3.44989C0.781708 2.78961 1.12175 2.2309 1.68067 1.67611C2.23569 1.12131 2.79461 0.777494 3.45124 0.523539C4.08833 0.277397 4.81532 0.10549 5.87844 0.0586052C6.94548 0.0117207 7.28552 0 10.002 0C12.7184 0 13.0584 0.0117207 14.1255 0.0586052C15.1886 0.10549 15.9195 0.277397 16.5527 0.523539C17.2093 0.777494 17.7682 1.12131 18.3232 1.67611C18.8782 2.2309 19.2222 2.78961 19.4763 3.44598C19.7225 4.08283 19.8945 4.80953 19.9414 5.87224C19.9883 6.93885 20 7.27876 20 9.99414C20 12.7095 19.9883 13.0494 19.9414 14.116C19.8945 15.1787 19.7225 15.9094 19.4763 16.5423C19.23 17.2065 18.89 17.7652 18.3311 18.32C17.776 18.8748 17.2171 19.2186 16.5605 19.4726C15.9234 19.7187 15.1964 19.8906 14.1333 19.9375C13.0623 19.9883 12.7223 20 10.0059 20Z" fill="#808080"/>
<path d="M10 5C7.23954 5 5 7.23954 5 10C5 12.7605 7.23954 15 10 15C12.7605 15 15 12.7605 15 10C15 7.23954 12.7605 5 10 5ZM10 13.2433C8.20913 13.2433 6.75665 11.7909 6.75665 10C6.75665 8.20913 8.20913 6.75665 10 6.75665C11.7909 6.75665 13.2433 8.20913 13.2433 10C13.2433 11.7909 11.7909 13.2433 10 13.2433Z" fill="#808080"/>
</svg>
