<svg width="14" height="14" viewBox="0 0 14 14" fill="none" xmlns="http://www.w3.org/2000/svg">
<path d="M8.87489 7.50211C10.1684 6.88179 11.0526 5.64283 11.0526 4.2125C11.0526 2.16219 9.23816 0.5 7 0.5C4.76184 0.5 2.94737 2.16219 2.94737 4.2125C2.94737 5.64283 3.83158 6.88179 5.1251 7.50211C2.17 8.29288 0 10.898 0 14H14C14 10.898 11.83 8.29288 8.87489 7.50211ZM3.68421 4.2125C3.68421 2.53749 5.17153 1.175 7 1.175C8.82847 1.175 10.3158 2.53749 10.3158 4.2125C10.3158 5.88751 8.82847 7.25 7 7.25C5.17153 7.25 3.68421 5.88751 3.68421 4.2125ZM7 7.925C10.2182 7.925 12.8774 10.2919 13.2248 13.325H0.775158C1.12258 10.2919 3.78184 7.925 7 7.925Z" fill="black"/>
</svg>
