<svg width="30" height="30" viewBox="0 0 30 30" fill="none" xmlns="http://www.w3.org/2000/svg">
<path d="M13.8349 21.1395C13.7509 20.8261 13.6235 20.5362 13.4661 20.2693L18.39 16.3173C18.8196 16.6749 19.3288 16.9243 19.8748 17.0444C20.4207 17.1646 20.9875 17.152 21.5276 17.0077C23.3914 16.5083 24.5019 14.5849 24.0025 12.7211C23.503 10.8569 21.5796 9.74685 19.7159 10.2462C18.833 10.4828 18.1222 11.0408 17.6686 11.7587L13.6755 10.3543C13.7814 9.83014 13.7648 9.28861 13.6268 8.77197C13.1273 6.90773 11.204 5.79771 9.34023 6.2971C7.47648 6.79649 6.36584 8.71947 6.86536 10.5837C7.36488 12.4479 9.28821 13.558 11.152 13.0586C11.6194 12.9331 12.0555 12.7116 12.4327 12.4084C12.8099 12.1051 13.1198 11.7266 13.3427 11.2971L17.2586 12.6745C17.0842 13.2809 17.0781 13.9233 17.241 14.5329C17.3434 14.9149 17.5081 15.2631 17.7174 15.5746L12.839 19.4901C12.4056 19.0846 11.8761 18.7961 11.3004 18.6517C10.7247 18.5073 10.1218 18.5118 9.54829 18.6647C7.68453 19.1641 6.57402 21.0875 7.07341 22.9513C7.5728 24.815 9.49626 25.9255 11.36 25.4261C13.2238 24.9268 14.3343 23.0033 13.8349 21.1395ZM10.8931 12.0927C9.56162 12.4494 8.18807 11.6564 7.83129 10.3249C7.4745 8.99336 8.26752 7.61981 9.59905 7.26302C10.9306 6.90624 12.3041 7.69926 12.6609 9.03079C13.0177 10.3623 12.2247 11.7359 10.8931 12.0927ZM19.9747 11.2122C21.3062 10.8554 22.6798 11.6484 23.0366 12.9799C23.3934 14.3115 22.6003 15.685 21.2688 16.0418C19.9373 16.3986 18.5637 15.6056 18.2069 14.274C17.8502 12.9425 18.6432 11.569 19.9747 11.2122ZM8.03934 22.6925C7.68256 21.3609 8.47558 19.9874 9.8071 19.6306C11.1386 19.2738 12.5122 20.0668 12.869 21.3984C13.2257 22.7299 12.4327 24.1034 11.1012 24.4602C9.76967 24.817 8.39612 24.024 8.03934 22.6925Z" fill="black"/>
</svg>
