<svg width="16" height="20" viewBox="0 0 16 20" fill="none" xmlns="http://www.w3.org/2000/svg">
<path d="M7.5 2C3.35775 2 0 5.5816 0 10C0 14.4184 3.35775 18 7.5 18C11.6422 18 15 14.4184 15 10C15 5.5816 11.6422 2 7.5 2ZM0.769125 10.4H4.50787C4.56112 13.2668 5.1765 15.7392 6.06975 17.0336C3.15188 16.3592 0.938625 13.6668 0.769125 10.4ZM14.2309 9.6H10.4921C10.4389 6.7332 9.8235 4.2608 8.93025 2.9664C11.8481 3.6408 14.0614 6.3332 14.2309 9.6ZM7.5 17.2C6.61125 17.2 5.33625 14.562 5.2575 10.4H9.7425C9.66375 14.562 8.38875 17.2 7.5 17.2ZM7.5 2.8C8.38875 2.8 9.66375 5.438 9.7425 9.6H5.2575C5.33625 5.438 6.61125 2.8 7.5 2.8ZM6.06975 2.9664C5.17613 4.2608 4.56075 6.7332 4.5075 9.6H0.76875C0.938625 6.3332 3.15188 3.6408 6.06975 2.9664ZM8.93025 17.0336C9.8235 15.7388 10.4389 13.2668 10.4921 10.4H14.2309C14.0614 13.6668 11.8481 16.3592 8.93025 17.0336Z" fill="black"/>
</svg>
